<?xml version="1.0" encoding="utf-8"?>
<!-- Svg Vector Icons : http://www.onlinewebfonts.com/icon -->
<!DOCTYPE svg PUBLIC "-//W3C//DTD SVG 1.1//EN" "http://www.w3.org/Graphics/SVG/1.1/DTD/svg11.dtd">
<svg version="1.1" xmlns="http://www.w3.org/2000/svg" xmlns:xlink="http://www.w3.org/1999/xlink" x="0px" y="0px" viewBox="0 0 256 256" enable-background="new 0 0 256 256" xml:space="preserve">
<metadata> Svg Vector Icons : http://www.onlinewebfonts.com/icon </metadata>
<g><g><g><path fill="#000000" d="M107.3,23.4c-24.4,1.5-48.2,12.2-65.9,29.8c-16.4,16.2-26,34.4-30.3,57.1c-1.5,8.2-1.5,27.4,0,35.6c6.9,37.1,31.5,66.9,66.1,80.2c12.2,4.8,23.4,6.7,37.7,6.7c29-0.1,55.1-11.1,75.3-31.9c3.3-3.5,6.6-7.1,7.3-8.1c1.2-1.7,1.2-1.8-0.8-4.2c-1-1.4-3.5-3.9-5.5-5.5l-3.5-3l-4.8,2.3c-15.4,7.4-35,6.2-48.3-2.8c-1.6-1.2-3-1.3-8.2-1.3h-6.3v-6.6c0-5.8-0.2-6.8-1.6-9.3c-0.9-1.5-2.5-5.4-3.7-8.7c-1.9-5.5-2.1-6.7-2.1-14c-0.1-9.6,1.2-15.2,4.8-22.8l2.5-5.2V94.8V77.9h15.4h15.4l1.7,4.3c0.9,2.4,1.9,5.1,2.2,6c0.6,1.5,0.8,1.6,5.8,1.6h5.2l-0.4-1.6c-0.2-0.9-1-3.5-1.9-5.7c-0.8-2.3-1.5-4.2-1.5-4.3c0-0.2,7.6-0.2,16.8-0.1l16.8,0.2l3.1,5.8c6.9,13.1,10.1,25.3,10.6,40.8c0.4,12.6-0.9,22.2-4.6,33.3l-2.3,6.8l3.9,3.9l3.8,3.8l1.1-2.5c2.4-5.7,5.6-15.8,6.9-22.4c1.2-5.8,1.5-9.2,1.5-19.6c-0.1-14.1-0.8-19.1-4.6-31.5c-11.5-37.1-44.3-65.7-82.4-72C123.4,23.1,117.1,22.9,107.3,23.4z M109.9,50.6v17H95.4c-8,0-14.5-0.3-14.5-0.5c0-1,9.3-16.6,13.8-23.2c6.8-10,7.3-10.3,11.6-10.3h3.6L109.9,50.6L109.9,50.6z M127.7,37.9c6.6,9.1,18.1,27.6,18.1,29.3c0,0.3-5.8,0.5-12.8,0.5h-12.9v-17v-17h2.2C124.3,33.6,124.8,34.1,127.7,37.9z M145.9,38.4c6.5,2.2,15.3,6.6,21.4,10.7c5.8,3.9,15,11.8,18.2,15.7l2.3,2.8h-15.2h-15.2l-2.6-5.3c-3.5-7-7.1-13-11.6-19.9c-2.1-3.1-3.4-5.6-3-5.6C140.8,36.8,143.3,37.5,145.9,38.4z M82.6,43.7c-4.4,6.9-10.9,18.2-12.3,21.7l-1,2.3H55.5H41.7l2.4-3c4.9-5.9,15.9-14.6,25.3-20c3.3-1.8,15.7-7.1,16.8-7.2C86.5,37.5,84.9,40.3,82.6,43.7z M62.9,83.5c-3.7,11.1-6.2,22.9-7.3,34.7l-0.5,4.7H37.5H19.8l0.4-3.7c1.5-13.4,5.5-26.2,11.5-37.1l2.4-4.2h15.4h15.4L62.9,83.5z M109.9,100.4v22.5H87.7H65.5v-1.8c0.1-9.3,4.7-29.6,9.1-40.2l1.3-3h17h17L109.9,100.4L109.9,100.4z M55.8,140.7c1,9.8,3.4,21.3,6.4,30.3l2.4,7.2L49.2,178l-15.5-0.2l-3.6-7.1c-5.2-10.4-8.7-22.1-9.8-33.6l-0.5-4h17.6h17.6L55.8,140.7z M109.9,155.7v22.5h-17c-15.7,0-17-0.1-17.6-1.2c-1.4-2.6-5.8-17-7-23c-1.4-6.6-2.7-15.9-2.7-19v-1.8h22.2h22.2L109.9,155.7L109.9,155.7z M70.6,191.5c2.6,5.5,8.5,15.8,12.5,21.6c4.3,6.6,4.6,6.4-5.3,2.2c-12.5-5.3-25.4-14.5-33.2-23.5l-3-3.4h13.8h13.8L70.6,191.5z M109.9,205.5v17h-3.6c-3.2,0-3.8-0.3-5.4-2c-4-4.3-19.9-29.4-19.9-31.5c0-0.3,6.5-0.6,14.5-0.6h14.5V205.5z M145.8,188.9c0,1.7-10,18.1-16.5,27c-4.4,6.2-4.9,6.6-7,6.6h-2.2v-17v-17H133C140.1,188.5,145.8,188.6,145.8,188.9z M185.7,191c-4.4,5.5-14.6,13.8-23.7,19.3c-5.3,3.1-16.7,8-20.6,8.7c-1.9,0.4-1.9,0.4,2.2-5.9c4.4-6.6,11.9-19.8,13-22.9l0.7-1.7h15.2h15.2L185.7,191z"/><path fill="#000000" d="M156,95.4c-21.5,2.4-38.4,21.5-38.4,43.4c0,6.1,1.7,13,4.9,19.5c2.4,4.9,4,7,7.9,10.9c8.7,8.6,16.8,12.1,28.8,12.7c10.3,0.5,18.6-1.7,26.2-7l3-2.1l25.2,25.2c24,24,25.2,25.1,27.5,25.1c1.8,0,2.7-0.4,3.7-1.7c2.8-3.6,3.2-3.2-23.8-30.3L195.6,166l1.2-1.7c0.6-1,2.3-4.1,3.7-6.9C215.4,126.6,190.2,91.4,156,95.4z M172.3,107.2c10.5,3.6,18.8,12.8,21.4,23.6c4.1,17.4-6.2,34.9-23.4,40c-4.6,1.3-13.6,1.3-18.1,0c-11.6-3.4-21.3-13.7-23.6-25.2c-2.7-12.8,2.5-26.3,13-33.8C150.9,105.1,161.6,103.5,172.3,107.2z"/></g></g></g>
</svg>